# xmcd
#
# Track frame offsets:
#	150
#	16327
#	34520
#	49765
#	65015
#	82307
#	95105
#	111470
#	122482
#	139387
#	153335
#
# Disc length: 2437 seconds
#
# Revision: 0
# Processed by: cddbd v1.4PL0 Copyright (c) Steve Scherf et al.
# Submitted via: dBpowerAMP V4.0
#
DISCID=9b09830b
DTITLE=Righteous Brothers - The Best of Righteous Brothers
DYEAR=1900
DGENRE=Country
TTITLE0=Unchained Melody
TTITLE1=Just Once In My Life
TTITLE2=Rock and Roll Heaven
TTITLE3=(You're My) Soul and Inspiration
TTITLE4=You've Lost That Lovin' Feelin'
TTITLE5=Ebb Tide
TTITLE6=Try To Find Another Love
TTITLE7=Little Latin Lupe Lu
TTITLE8=Hung On You
TTITLE9=My Babe
TTITLE10=Unchained Melody
EXTD=
EXTT0=
EXTT1=
EXTT2=
EXTT3=
EXTT4=
EXTT5=
EXTT6=
EXTT7=
EXTT8=
EXTT9=
EXTT10=
PLAYORDER=
